<svg xmlns="http://www.w3.org/2000/svg" viewBox="0 0 256 257"><path fill="#41D1FF" d="M255.153 37.938 134.897 252.976c-2.483 4.44-8.862 4.466-11.382.048L.875 37.958c-2.746-4.814 1.371-10.646 6.827-9.67l120.385 21.517a6.54 6.54 0 0 0 2.322-.004l117.867-21.483c5.438-.991 9.574 4.796 6.877 9.62Z"/><path fill="#BD34FE" d="M185.432.063 96.44 17.501a3.268 3.268 0 0 0-2.634 3.014l-5.474 92.456a3.268 3.268 0 0 0 3.997 3.378l24.777-5.718c2.318-.535 4.413 1.507 3.936 3.838l-7.361 36.047c-.495 2.426 1.782 4.5 4.151 3.78l15.304-4.649c2.372-.72 4.652 1.36 4.15 3.788l-11.698 56.621c-.732 3.542 3.979 5.473 5.943 2.437l1.313-2.028 72.516-144.72c1.215-2.423-.88-5.186-3.54-4.672l-25.505 4.922c-2.396.462-4.435-1.77-3.759-4.114l16.646-57.705c.677-2.35-1.37-4.583-3.766-4.111Z"/><path fill="#FFF" d="m129.522 48.109-4.091 69.097c-.106 1.794 1.536 3.183 3.286 2.779l20.295-4.684c1.899-.438 3.617 1.234 3.226 3.143l-6.031 29.539c-.406 1.988 1.461 3.688 3.403 3.098l12.53-3.806c1.945-.591 3.815 1.114 3.404 3.104l-9.579 46.36c-.599 2.902 3.26 4.484 4.869 1.996l.001-.002 47.982-95.789c.996-1.985-.721-4.248-2.899-3.827l-20.894 4.032c-1.963.379-3.634-1.45-3.08-3.37l13.634-47.273c.555-1.925-1.122-3.754-3.085-3.368l-60.812 11.923a2.677 2.677 0 0 1-2.159-12.952Z"/></svg>
